<svg id="Layer_1" data-name="Layer 1" xmlns="http://www.w3.org/2000/svg" xmlns:xlink="http://www.w3.org/1999/xlink" viewBox="0 0 791.62 162.62"><defs><style>.cls-1{fill:url(#linear-gradient);}.cls-2{fill:#fff;}</style><linearGradient id="linear-gradient" x1="-651.26" y1="-2808.86" x2="-796.4" y2="-2663.72" gradientTransform="translate(-632.85 -2650.96) rotate(180)" gradientUnits="userSpaceOnUse"><stop offset="0" stop-color="#ff8d72"/><stop offset="0.5" stop-color="#ff6491"/><stop offset="1" stop-color="#ff8d72"/></linearGradient></defs><title>Logo</title><path class="cls-1" d="M39.42,162.62A32.83,32.83,0,0,0,65,150.43l26-32h0l26,32a32.85,32.85,0,0,0,25.6,12.19A39.47,39.47,0,0,0,182,123.19v-70A53.13,53.13,0,0,0,91,15.84h0A53.13,53.13,0,0,0,0,53.16v70A39.47,39.47,0,0,0,39.42,162.62Zm66.9-109.46A22.51,22.51,0,0,1,129.93,30.7c12.07.6,21.35,11,21.35,23.11v69.38a8.12,8.12,0,0,1,0,.86c-.64,6.51-9.14,8.72-13.26,3.64l-31.66-39ZM52,30.7A22.51,22.51,0,0,1,75.64,53.16V88.7L44,127.69c-4.12,5.08-12.62,2.87-13.25-3.64a8.11,8.11,0,0,1,0-.86V53.81C30.67,41.71,40,31.3,52,30.7Z"/><path class="cls-2" d="M228,136.53V26.08h31.71a59.81,59.81,0,0,1,15.15,1.82,32.46,32.46,0,0,1,11.91,5.68,27.07,27.07,0,0,1,7.81,9.7,31.36,31.36,0,0,1,2.84,13.89,35.21,35.21,0,0,1-1.81,11.36,19.67,19.67,0,0,1-6.55,9.15A19.56,19.56,0,0,1,296,81.86a24.5,24.5,0,0,1,4.81,6.31,31.13,31.13,0,0,1,2.84,7.65,35.82,35.82,0,0,1,.94,8.05,32,32,0,0,1-3.23,15,28.9,28.9,0,0,1-8.68,10.1,36.63,36.63,0,0,1-12.46,5.76,57.49,57.49,0,0,1-14.44,1.81Zm49.86-79.36a11.82,11.82,0,0,0-1.82-6.24,11.64,11.64,0,0,0-4.1-3.78,18.21,18.21,0,0,0-5.6-1.9,37.35,37.35,0,0,0-6.31-.55H247V71.05h17.36A16.52,16.52,0,0,0,270.7,70a10.84,10.84,0,0,0,4.18-3,11.72,11.72,0,0,0,2.29-4.42A19.83,19.83,0,0,0,277.88,57.17Zm6.78,46.54q0-8-4.89-11t-14-3H247v27.77h18.78a33.63,33.63,0,0,0,6.86-.71,18.64,18.64,0,0,0,6.08-2.37A13.39,13.39,0,0,0,283,110.1,11.68,11.68,0,0,0,284.66,103.71Z"/><path class="cls-2" d="M315.59,96.93A41.77,41.77,0,0,1,319,80.12a42.84,42.84,0,0,1,9.23-13.56,44.55,44.55,0,0,1,13.65-9.16,43.35,43.35,0,0,1,33.61,0,42.94,42.94,0,0,1,22.72,22.72,43.35,43.35,0,0,1,0,33.61,42.85,42.85,0,0,1-22.72,22.72,43.23,43.23,0,0,1-33.61,0,44.35,44.35,0,0,1-13.65-9.15A42.78,42.78,0,0,1,319,113.73,41.72,41.72,0,0,1,315.59,96.93Zm18.3,0a23.36,23.36,0,0,0,2,9.54A24.95,24.95,0,0,0,349,119.57a24.25,24.25,0,0,0,19.15,0,24.95,24.95,0,0,0,13.14-13.1,24,24,0,0,0,0-19.09,24.89,24.89,0,0,0-13.14-13.09,24.14,24.14,0,0,0-19.15,0,24.89,24.89,0,0,0-13.14,13.09A23.44,23.44,0,0,0,333.89,96.93Z"/><path class="cls-2" d="M411.84,96.93a41.77,41.77,0,0,1,3.39-16.81,42.84,42.84,0,0,1,9.23-13.56,44.55,44.55,0,0,1,13.65-9.16,43.35,43.35,0,0,1,33.61,0,43,43,0,0,1,22.72,22.72,43.35,43.35,0,0,1,0,33.61,42.94,42.94,0,0,1-22.72,22.72,43.23,43.23,0,0,1-33.61,0,44.35,44.35,0,0,1-13.65-9.15,42.78,42.78,0,0,1-9.23-13.57A41.72,41.72,0,0,1,411.84,96.93Zm18.3,0a23.36,23.36,0,0,0,2,9.54,25.09,25.09,0,0,0,5.3,7.81,25.39,25.39,0,0,0,7.83,5.29,24.28,24.28,0,0,0,19.16,0,25,25,0,0,0,13.14-13.1,24,24,0,0,0,0-19.09,25,25,0,0,0-13.14-13.09,24.17,24.17,0,0,0-19.16,0,24.91,24.91,0,0,0-13.13,13.09A23.44,23.44,0,0,0,430.14,96.93Z"/><path class="cls-2" d="M529.54,85.41l28.88-27.77H583L548.48,91.25,583,136.53H559.21l-24.46-32-5,4.89v27.14H511.24V26.08h18.3Z"/><path class="cls-2" d="M671.55,26.08h16.72V136.53H669.34V60.8L641.1,99.3,613,61.27v75.26H594.08V26.08H610.8l30.3,41.34Z"/><path class="cls-2" d="M723.93,98.19a22.56,22.56,0,0,0,2.21,9.15,25.3,25.3,0,0,0,5.37,7.42,24.6,24.6,0,0,0,7.73,5,25.85,25.85,0,0,0,23.35-2.21,23.12,23.12,0,0,0,8.52-10.81h20a53.05,53.05,0,0,1-7.1,15.31A40.72,40.72,0,0,1,774,132.27,40.3,40.3,0,0,1,761.8,138a48.81,48.81,0,0,1-13.25,1.82,41.78,41.78,0,0,1-16.81-3.4,43.88,43.88,0,0,1-13.6-9.15A42.73,42.73,0,0,1,709,113.73a43.71,43.71,0,0,1,0-33.61,42.79,42.79,0,0,1,9.15-13.56,44.08,44.08,0,0,1,13.6-9.16A41.77,41.77,0,0,1,748.55,54a42.21,42.21,0,0,1,17.83,3.63,41.41,41.41,0,0,1,13.41,9.7,44.26,44.26,0,0,1,8.6,14.13,48.84,48.84,0,0,1,3.23,16.72Zm47.18-12.31a24.74,24.74,0,0,0-8.36-11.28,23.54,23.54,0,0,0-28.09,0,24.67,24.67,0,0,0-8.36,11.28Z"/></svg>