<?xml version="1.0" standalone="no"?>
<svg version="1.0" xmlns="http://www.w3.org/2000/svg"
 width="500.000000pt" height="500.000000pt" viewBox="0 0 500.000000 500.000000"
 preserveAspectRatio="xMidYMid meet">

<g transform="translate(0.000000,500.000000) scale(0.100000,-0.100000)"
fill="#854fee" fill-opacity="1" stroke="none">
<path d="M0 2500 l0 -2500 2500 0 2500 0 0 2500 0 2500 -2500 0 -2500 0 0
-2500z m2590 1606 c297 -45 550 -194 723 -426 65 -86 150 -263 183 -378 14
-51 24 -95 21 -98 -6 -6 -822 -144 -853 -144 -17 0 -26 12 -44 62 -28 76 -107
161 -166 177 -96 27 -181 3 -249 -70 -95 -102 -138 -243 -137 -459 0 -166 20
-267 72 -377 47 -96 107 -160 188 -200 51 -25 68 -28 157 -28 89 0 107 3 163
29 75 35 143 105 166 173 9 26 16 50 16 55 0 4 -115 8 -255 8 l-255 0 0 260 0
260 705 0 705 0 0 -775 0 -775 -329 0 -329 0 -6 38 c-3 20 -13 111 -22 202 -9
91 -17 166 -19 168 -1 2 -15 -18 -30 -44 -67 -113 -250 -271 -388 -334 -138
-62 -206 -75 -392 -74 -150 1 -182 4 -270 27 -197 52 -389 171 -513 317 -151
179 -242 382 -294 657 -20 103 -22 151 -23 373 0 281 11 360 76 555 103 310
315 562 584 697 234 118 543 165 815 124z"/>
</g>
</svg>

