<svg id="Black_Dial_Logo" data-name="Black Dial Logo" xmlns="http://www.w3.org/2000/svg" viewBox="0 0 244.14 86.31"><defs><style>.cls-1{fill:#854fee;}.cls-2{fill:#231f20;}</style></defs><path class="cls-1" d="M57.79,117.73a3.83,3.83,0,1,1,1.12,2.81A3.79,3.79,0,0,1,57.79,117.73Zm.56,14.78H64.9v46.75H58.35Z" transform="translate(-3.09 -113.81)"/><path class="cls-1" d="M69.85,113.81H76.4V140a19.93,19.93,0,0,1,8.22-7.06,24.1,24.1,0,0,1,10.94-2.86,25.08,25.08,0,0,1,10,2,25.82,25.82,0,0,1,13.7,13.69,25.91,25.91,0,0,1,0,20,25.8,25.8,0,0,1-13.7,13.7,25.91,25.91,0,0,1-20,0,25.8,25.8,0,0,1-13.7-13.7,25,25,0,0,1-2-10Zm6.55,42a18.64,18.64,0,0,0,1.49,7.43,19.15,19.15,0,0,0,10.24,10.24,19.18,19.18,0,0,0,14.87,0,19.15,19.15,0,0,0,10.24-10.24,19.27,19.27,0,0,0,0-14.86A19.15,19.15,0,0,0,103,138.12a19.18,19.18,0,0,0-14.87,0,19.15,19.15,0,0,0-10.24,10.24A18.64,18.64,0,0,0,76.4,155.79Z" transform="translate(-3.09 -113.81)"/><path class="cls-1" d="M132.69,155.79a18.64,18.64,0,0,0,1.49,7.43,19.15,19.15,0,0,0,10.24,10.24,19.18,19.18,0,0,0,14.87,0,19.11,19.11,0,0,0,6.12-4.11,18.24,18.24,0,0,0,3.18-4.3h7.2l-.28.74A25.31,25.31,0,0,1,170,174a26,26,0,0,1-8.18,5.51,25.91,25.91,0,0,1-20,0,25.8,25.8,0,0,1-13.7-13.7,25.91,25.91,0,0,1,0-20,25.82,25.82,0,0,1,13.7-13.69,25.79,25.79,0,0,1,20,0A25.86,25.86,0,0,1,170,137.6a25.37,25.37,0,0,1,5.47,8.18,24,24,0,0,1,2,8.05h-44.7C132.72,154.51,132.69,155.17,132.69,155.79Zm32.72-13.56a19.27,19.27,0,0,0-6.12-4.11,19.18,19.18,0,0,0-14.87,0,19.34,19.34,0,0,0-9.77,9.16H169A20.58,20.58,0,0,0,165.41,142.23Z" transform="translate(-3.09 -113.81)"/><path class="cls-1" d="M183.27,113.81h6.55v65.45h-6.55Z" transform="translate(-3.09 -113.81)"/><path class="cls-1" d="M202.44,155.79a18.65,18.65,0,0,0,1.5,7.43,19.07,19.07,0,0,0,10.24,10.24,19.15,19.15,0,0,0,14.86,0,19.26,19.26,0,0,0,6.13-4.11,18.81,18.81,0,0,0,3.18-4.3h7.2l-.28.74A25.47,25.47,0,0,1,239.8,174a26.08,26.08,0,0,1-8.19,5.51,25.91,25.91,0,0,1-20,0,25.8,25.8,0,0,1-13.7-13.7,25.91,25.91,0,0,1,0-20,25.82,25.82,0,0,1,13.7-13.69,25.79,25.79,0,0,1,20,0,25.91,25.91,0,0,1,8.19,5.51,25.54,25.54,0,0,1,5.47,8.18,24,24,0,0,1,2,8.05h-44.7C202.47,154.51,202.44,155.17,202.44,155.79Zm32.73-13.56a19.43,19.43,0,0,0-6.13-4.11,19.15,19.15,0,0,0-14.86,0,19.31,19.31,0,0,0-9.78,9.16h34.32A20.81,20.81,0,0,0,235.17,142.23Z" transform="translate(-3.09 -113.81)"/><path class="cls-1" d="M48,132.51h6.55V174.4a25.06,25.06,0,0,1-2,10,25.89,25.89,0,0,1-13.7,13.7,25.07,25.07,0,0,1-10,2,25,25,0,0,1-10-2,26.06,26.06,0,0,1-8.23-5.56,25,25,0,0,1-3.37-4.21L12,183.56A18.74,18.74,0,0,0,15.24,188a19.29,19.29,0,0,0,6.13,4.12,19.18,19.18,0,0,0,14.87,0A19.35,19.35,0,0,0,42.36,188a19.13,19.13,0,0,0,4.12-6.12A18.85,18.85,0,0,0,48,174.4V173l-1,1a25.7,25.7,0,0,1-8.13,5.47,25.07,25.07,0,0,1-10,2,25,25,0,0,1-10-2,25.8,25.8,0,0,1-13.7-13.7,25.91,25.91,0,0,1,0-20,25.82,25.82,0,0,1,13.7-13.69,25,25,0,0,1,10-2,25.2,25.2,0,0,1,18.14,7.58,7.16,7.16,0,0,1,1,1ZM9.63,155.79a18.65,18.65,0,0,0,1.5,7.43,19.07,19.07,0,0,0,10.24,10.24,19.18,19.18,0,0,0,14.87,0,19.15,19.15,0,0,0,10.24-10.24A20.81,20.81,0,0,0,48,155a17.11,17.11,0,0,0-1.31-6.73,22.22,22.22,0,0,0-4.3-6.08,19.49,19.49,0,0,0-6.12-4.11,19.18,19.18,0,0,0-14.87,0,19.07,19.07,0,0,0-10.24,10.24A18.65,18.65,0,0,0,9.63,155.79Z" transform="translate(-3.09 -113.81)"/><path class="cls-2" d="M27.84,157.14l.4.16c-1.29,3.72-2.88,8.34-4.16,12.06l-.34-.14C25,165.16,26.53,161.18,27.84,157.14Z" transform="translate(-3.09 -113.81)"/><path class="cls-2" d="M21.26,143c.57-.24,1.35-.55,1.91-.8,2.08,4.35,4,8.8,6,13.17,4,0,8,0,12,0,0,.65,0,1.3,0,1.95-4.3,0-8.59,0-12.88,0l-.4-.16c-1.78-3.43-3.21-7-4.85-10.53C22.48,145.39,21.26,143,21.26,143Z" transform="translate(-3.09 -113.81)"/></svg>