<svg id="Layer_2" data-name="Layer 2" xmlns="http://www.w3.org/2000/svg" xmlns:xlink="http://www.w3.org/1999/xlink" viewBox="0 0 244.14 86.31"><defs><style>.cls-1{fill:url(#linear-gradient);}.cls-2{fill:url(#linear-gradient-2);}.cls-3{fill:url(#linear-gradient-3);}.cls-4{fill:url(#linear-gradient-4);}.cls-5{fill:url(#linear-gradient-5);}.cls-6{fill:url(#linear-gradient-6);}.cls-7{fill:#6d6e71;}.cls-8{fill:#4f5fab;}</style><linearGradient id="linear-gradient" x1="29.77" y1="18.06" x2="29.77" y2="77.62" gradientUnits="userSpaceOnUse"><stop offset="0" stop-color="#4f5fab"/><stop offset="1" stop-color="#735da8"/></linearGradient><linearGradient id="linear-gradient-2" x1="62.68" y1="18.06" x2="62.68" y2="77.62" xlink:href="#linear-gradient"/><linearGradient id="linear-gradient-3" x1="96.53" y1="18.06" x2="96.53" y2="77.62" xlink:href="#linear-gradient"/><linearGradient id="linear-gradient-4" x1="152.77" y1="18.06" x2="152.77" y2="77.62" xlink:href="#linear-gradient"/><linearGradient id="linear-gradient-5" x1="187.51" y1="18.06" x2="187.51" y2="77.62" xlink:href="#linear-gradient"/><linearGradient id="linear-gradient-6" x1="222.53" y1="18.06" x2="222.53" y2="77.62" xlink:href="#linear-gradient"/></defs><path class="cls-1" d="M48.94,21.28h6.54V63.17a25.06,25.06,0,0,1-2,10,25.89,25.89,0,0,1-13.7,13.7,25.06,25.06,0,0,1-10,2,25.07,25.07,0,0,1-10-2,26.23,26.23,0,0,1-8.23-5.56A25,25,0,0,1,8.17,77.1l4.77-4.77a18.46,18.46,0,0,0,3.27,4.39,19.24,19.24,0,0,0,6.12,4.12,19.3,19.3,0,0,0,14.87,0A19.15,19.15,0,0,0,47.44,70.6a18.72,18.72,0,0,0,1.5-7.43V61.76l-1,1a25.74,25.74,0,0,1-8.14,5.47,25.06,25.06,0,0,1-10,2,25.07,25.07,0,0,1-10-2,25.8,25.8,0,0,1-13.7-13.7,25.91,25.91,0,0,1,0-20,25.89,25.89,0,0,1,13.7-13.7,25.07,25.07,0,0,1,10-2,25.14,25.14,0,0,1,18.14,7.58,8.35,8.35,0,0,1,1,1ZM10.6,44.56A18.85,18.85,0,0,0,12.09,52,19.15,19.15,0,0,0,22.33,62.23a19.18,19.18,0,0,0,14.87,0A19.07,19.07,0,0,0,47.44,52a20.66,20.66,0,0,0,1.5-8.18,17.11,17.11,0,0,0-1.31-6.73A22.66,22.66,0,0,0,43.33,31a19.26,19.26,0,0,0-6.13-4.11,19.18,19.18,0,0,0-14.87,0A19.18,19.18,0,0,0,12.09,37.12,18.9,18.9,0,0,0,10.6,44.56Z" transform="translate(-4.05 -2.57)"/><path class="cls-2" d="M58.75,6.5a3.86,3.86,0,0,1,3.93-3.93A3.84,3.84,0,0,1,66.61,6.5a3.83,3.83,0,0,1-3.93,3.93A3.84,3.84,0,0,1,58.75,6.5Zm.57,14.78h6.54V68H59.32Z" transform="translate(-4.05 -2.57)"/><path class="cls-3" d="M70.81,2.57h6.55V28.76a20,20,0,0,1,8.23-7.06,24.1,24.1,0,0,1,10.94-2.86,25,25,0,0,1,10,2,25.8,25.8,0,0,1,13.7,13.7,25.91,25.91,0,0,1,0,20,25.71,25.71,0,0,1-13.7,13.7,25.91,25.91,0,0,1-20,0,26.15,26.15,0,0,1-8.18-5.51,25.74,25.74,0,0,1-5.51-8.19,24.86,24.86,0,0,1-2-10Zm6.55,42A18.69,18.69,0,0,0,78.86,52,19.1,19.1,0,0,0,83,58.12a19.31,19.31,0,0,0,6.13,4.11,19.15,19.15,0,0,0,14.86,0A19.07,19.07,0,0,0,114.2,52a19.18,19.18,0,0,0,0-14.87A19.49,19.49,0,0,0,110.09,31,19.26,19.26,0,0,0,104,26.89a19.15,19.15,0,0,0-14.86,0A19.09,19.09,0,0,0,78.86,37.12,18.73,18.73,0,0,0,77.36,44.56Z" transform="translate(-4.05 -2.57)"/><path class="cls-4" d="M133.65,44.56a18.69,18.69,0,0,0,1.5,7.43,19.1,19.1,0,0,0,4.11,6.13,19.38,19.38,0,0,0,6.12,4.11,19.18,19.18,0,0,0,14.87,0,19.43,19.43,0,0,0,6.13-4.11,18.81,18.81,0,0,0,3.18-4.3h7.2l-.28.74A25.47,25.47,0,0,1,171,62.75a26.08,26.08,0,0,1-8.19,5.51,25.91,25.91,0,0,1-20,0,25.73,25.73,0,0,1-13.69-13.7,25.79,25.79,0,0,1,0-20,25.82,25.82,0,0,1,13.69-13.7,25.91,25.91,0,0,1,20,0A26.1,26.1,0,0,1,171,26.37a25.54,25.54,0,0,1,5.47,8.18,24,24,0,0,1,2,8h-44.7C133.68,43.28,133.65,43.94,133.65,44.56ZM166.38,31a19.26,19.26,0,0,0-6.13-4.11,19.18,19.18,0,0,0-14.87,0A19.22,19.22,0,0,0,139.26,31a19.42,19.42,0,0,0-3.65,5h34.32A20.54,20.54,0,0,0,166.38,31Z" transform="translate(-4.05 -2.57)"/><path class="cls-5" d="M184.24,2.57h6.54V68h-6.54Z" transform="translate(-4.05 -2.57)"/><path class="cls-6" d="M203.4,44.56A18.69,18.69,0,0,0,204.9,52a19.07,19.07,0,0,0,10.24,10.24,19.18,19.18,0,0,0,14.87,0,19.38,19.38,0,0,0,6.12-4.11,18.24,18.24,0,0,0,3.18-4.3h7.2l-.28.74a25.31,25.31,0,0,1-5.47,8.19,26.15,26.15,0,0,1-8.18,5.51,25.91,25.91,0,0,1-20,0,25.8,25.8,0,0,1-13.7-13.7,25.91,25.91,0,0,1,0-20,25.89,25.89,0,0,1,13.7-13.7,25.91,25.91,0,0,1,20,0,26.17,26.17,0,0,1,8.18,5.52,25.37,25.37,0,0,1,5.47,8.18,23.71,23.71,0,0,1,2,8H203.5A19.54,19.54,0,0,0,203.4,44.56ZM236.13,31A19.22,19.22,0,0,0,230,26.89a19.18,19.18,0,0,0-14.87,0,19.23,19.23,0,0,0-9.77,9.16h34.31A20.54,20.54,0,0,0,236.13,31Z" transform="translate(-4.05 -2.57)"/><path class="cls-7" d="M28.81,45.91l.39.16-4.15,12L24.71,58C26,53.93,27.5,50,28.81,45.91Z" transform="translate(-4.05 -2.57)"/><path class="cls-8" d="M22.23,31.79c.57-.24,1.34-.55,1.9-.8,2.09,4.35,4,8.8,6,13.17,4,0,8,0,12,0,0,.65,0,1.3,0,1.95-4.29,0-8.58,0-12.88,0l-.39-.16c-1.78-3.43-3.22-7-4.86-10.54C23.44,34.16,22.23,31.79,22.23,31.79Z" transform="translate(-4.05 -2.57)"/></svg>