<svg data-v-423bf9ae="" xmlns="http://www.w3.org/2000/svg" viewBox="0 0 307 90" class="iconLeft"><!----><!----><!----><g data-v-423bf9ae="" id="81592084-1016-453f-9e1c-2bb4640bc2e6" fill="#000000" transform="matrix(5.295675234247834,0,0,5.295675234247834,106.8755497707749,1.0723754352348962)"><path d="M5.11 9.28L5.11 7.97L8.47 7.97L8.47 13.78L7.10 13.78L7.05 12.00L7.05 12.00Q6.91 12.54 6.55 12.98L6.55 12.98L6.55 12.98Q6.19 13.43 5.66 13.68L5.66 13.68L5.66 13.68Q5.12 13.94 4.48 13.94L4.48 13.94L4.48 13.94Q3.13 13.94 2.26 13.20L2.26 13.20L2.26 13.20Q1.39 12.46 0.99 11.19L0.99 11.19L0.99 11.19Q0.59 9.91 0.59 8.25L0.59 8.25L0.59 8.25Q0.59 6.62 1.01 5.36L1.01 5.36L1.01 5.36Q1.42 4.10 2.33 3.37L2.33 3.37L2.33 3.37Q3.24 2.63 4.66 2.63L4.66 2.63L4.66 2.63Q7.81 2.63 8.47 5.68L8.47 5.68L7 6.08L7 6.08Q6.76 5.08 6.24 4.59L6.24 4.59L6.24 4.59Q5.71 4.10 4.72 4.10L4.72 4.10L4.72 4.10Q3.37 4.10 2.83 5.23L2.83 5.23L2.83 5.23Q2.29 6.36 2.29 8.24L2.29 8.24L2.29 8.24Q2.29 10.11 2.83 11.26L2.83 11.26L2.83 11.26Q3.38 12.41 4.65 12.41L4.65 12.41L4.65 12.41Q5.43 12.41 5.96 11.91L5.96 11.91L5.96 11.91Q6.49 11.42 6.71 10.52L6.71 10.52L6.71 10.52Q6.84 9.94 6.86 9.28L6.86 9.28L5.11 9.28ZM10.25 4.44L10.25 2.80L11.91 2.80L11.91 4.44L10.25 4.44ZM10.23 13.78L10.23 5.63L11.91 5.63L11.91 13.78L10.23 13.78ZM17.49 5.48L17.49 5.48Q18.35 5.48 18.98 5.95L18.98 5.95L18.98 5.95Q19.61 6.43 19.96 7.38L19.96 7.38L19.96 7.38Q20.30 8.33 20.30 9.71L20.30 9.71L20.30 9.71Q20.30 11.05 19.96 12.00L19.96 12.00L19.96 12.00Q19.63 12.95 18.99 13.46L18.99 13.46L18.99 13.46Q18.35 13.96 17.47 13.96L17.47 13.96L17.47 13.96Q16.75 13.96 16.22 13.58L16.22 13.58L16.22 13.58Q15.69 13.21 15.42 12.53L15.42 12.53L15.35 12.53L15.31 13.78L13.75 13.78L13.75 2.80L15.42 2.80L15.42 6.91L15.47 6.91L15.47 6.91Q15.77 6.21 16.28 5.84L16.28 5.84L16.28 5.84Q16.78 5.48 17.49 5.48L17.49 5.48ZM16.97 12.53L16.97 12.53Q17.44 12.53 17.81 12.23L17.81 12.23L17.81 12.23Q18.19 11.93 18.41 11.29L18.41 11.29L18.41 11.29Q18.63 10.66 18.63 9.70L18.63 9.70L18.63 9.70Q18.63 8.77 18.41 8.15L18.41 8.15L18.41 8.15Q18.18 7.52 17.81 7.22L17.81 7.22L17.81 7.22Q17.43 6.92 16.97 6.92L16.97 6.92L16.97 6.92Q16.47 6.92 16.11 7.26L16.11 7.26L16.11 7.26Q15.75 7.59 15.56 8.22L15.56 8.22L15.56 8.22Q15.37 8.85 15.37 9.70L15.37 9.70L15.37 9.70Q15.37 10.58 15.56 11.22L15.56 11.22L15.56 11.22Q15.75 11.85 16.11 12.19L16.11 12.19L16.11 12.19Q16.47 12.53 16.97 12.53L16.97 12.53ZM27.30 9.44L27.30 9.44Q27.30 9.97 27.25 10.19L27.25 10.19L22.77 10.19L22.77 10.19Q22.78 10.86 23.00 11.40L23.00 11.40L23.00 11.40Q23.21 11.94 23.61 12.26L23.61 12.26L23.61 12.26Q24.01 12.57 24.56 12.57L24.56 12.57L24.56 12.57Q25.48 12.57 26.04 11.77L26.04 11.77L27.15 12.37L27.15 12.37Q26.70 13.23 26.03 13.59L26.03 13.59L26.03 13.59Q25.36 13.95 24.50 13.95L24.50 13.95L24.50 13.95Q23.46 13.95 22.70 13.40L22.70 13.40L22.70 13.40Q21.94 12.86 21.55 11.90L21.55 11.90L21.55 11.90Q21.15 10.95 21.15 9.73L21.15 9.73L21.15 9.73Q21.15 8.51 21.47 7.56L21.47 7.56L21.47 7.56Q21.79 6.60 22.50 6.04L22.50 6.04L22.50 6.04Q23.21 5.48 24.31 5.48L24.31 5.48L24.31 5.48Q25.94 5.48 26.62 6.58L26.62 6.58L26.62 6.58Q27.30 7.69 27.30 9.44L27.30 9.44ZM24.34 6.80L24.34 6.80Q23.52 6.80 23.17 7.42L23.17 7.42L23.17 7.42Q22.81 8.05 22.78 9.04L22.78 9.04L25.87 9.04L25.87 9.04Q25.85 8.31 25.72 7.83L25.72 7.83L25.72 7.83Q25.59 7.35 25.26 7.08L25.26 7.08L25.26 7.08Q24.92 6.80 24.34 6.80L24.34 6.80ZM28.63 13.78L28.63 2.80L30.29 2.80L30.29 13.78L28.63 13.78ZM37.77 9.44L37.77 9.44Q37.77 9.97 37.73 10.19L37.73 10.19L33.24 10.19L33.24 10.19Q33.26 10.86 33.47 11.40L33.47 11.40L33.47 11.40Q33.68 11.94 34.08 12.26L34.08 12.26L34.08 12.26Q34.48 12.57 35.03 12.57L35.03 12.57L35.03 12.57Q35.95 12.57 36.51 11.77L36.51 11.77L37.63 12.37L37.63 12.37Q37.17 13.23 36.50 13.59L36.50 13.59L36.50 13.59Q35.83 13.95 34.97 13.95L34.97 13.95L34.97 13.95Q33.93 13.95 33.17 13.40L33.17 13.40L33.17 13.40Q32.42 12.86 32.02 11.90L32.02 11.90L32.02 11.90Q31.62 10.95 31.62 9.73L31.62 9.73L31.62 9.73Q31.62 8.51 31.94 7.56L31.94 7.56L31.94 7.56Q32.27 6.60 32.97 6.04L32.97 6.04L32.97 6.04Q33.68 5.48 34.78 5.48L34.78 5.48L34.78 5.48Q36.41 5.48 37.09 6.58L37.09 6.58L37.09 6.58Q37.77 7.69 37.77 9.44L37.77 9.44ZM34.82 6.80L34.82 6.80Q34.00 6.80 33.64 7.42L33.64 7.42L33.64 7.42Q33.28 8.05 33.26 9.04L33.26 9.04L36.35 9.04L36.35 9.04Q36.33 8.31 36.19 7.83L36.19 7.83L36.19 7.83Q36.06 7.35 35.73 7.08L35.73 7.08L35.73 7.08Q35.40 6.80 34.82 6.80L34.82 6.80Z"></path></g><defs data-v-423bf9ae=""><linearGradient data-v-423bf9ae="" gradientTransform="rotate(25)" id="e52f7415-c0ae-4348-a490-73c7ea660e5b" x1="0%" y1="0%" x2="100%" y2="0%"><stop data-v-423bf9ae="" offset="0%" style="stop-color: rgb(73, 36, 126); stop-opacity: 1;"></stop><stop data-v-423bf9ae="" offset="100%" style="stop-color: rgb(170, 73, 199); stop-opacity: 1;"></stop></linearGradient></defs><g data-v-423bf9ae="" id="c8cb2c1c-9c6c-4212-9b3d-8e8c08b4e3f8" transform="matrix(2.8125,0,0,2.8125,0,0)" stroke="none" fill="url(#e52f7415-c0ae-4348-a490-73c7ea660e5b)"><path d="M0 16l16 16 16-16L16 0 0 16zm16 13.172L2.828 16 16 2.828 29.172 16 16 29.172z"></path><path d="M14.751 9.991v4.76h-2.262v-4.76H9.991v12.018h2.498v-4.76h2.262v4.76h2.498v-4.76h2.262v4.76h2.498V9.991h-2.498v4.76h-2.262v-4.76z"></path></g><!----></svg>